<svg width="152" height="40" viewBox="0 0 152 40" fill="none" xmlns="http://www.w3.org/2000/svg">
<path opacity="0.5" fill-rule="evenodd" clip-rule="evenodd" d="M19.4567 5.24272L21.6791 7.70468L9.41865 18.7366H40L21.691 35.534L19.4448 33.0936L31.4813 22.0509H0.776703L19.4567 5.24272Z" fill="url(#paint0_radial_4046_67412)"/>
<path d="M20.3884 11.6505C23.1766 11.6505 25.4369 9.3467 25.4369 6.50485C25.4369 3.663 23.1766 1.35922 20.3884 1.35922C17.6001 1.35922 15.3398 3.663 15.3398 6.50485C15.3398 9.3467 17.6001 11.6505 20.3884 11.6505Z" fill="url(#paint1_radial_4046_67412)"/>
<path d="M5.04854 25.0485C7.83677 25.0485 10.0971 22.7447 10.0971 19.9029C10.0971 17.0611 7.83677 14.7573 5.04854 14.7573C2.26031 14.7573 0 17.0611 0 19.9029C0 22.7447 2.26031 25.0485 5.04854 25.0485Z" fill="url(#paint2_radial_4046_67412)"/>
<path d="M20.3884 38.6408C23.1766 38.6408 25.4369 36.337 25.4369 33.4951C25.4369 30.6533 23.1766 28.3495 20.3884 28.3495C17.6001 28.3495 15.3398 30.6533 15.3398 33.4951C15.3398 36.337 17.6001 38.6408 20.3884 38.6408Z" fill="url(#paint3_radial_4046_67412)"/>
<path d="M34.9515 25.0485C37.7397 25.0485 40 22.7447 40 19.9029C40 17.0611 37.7397 14.7573 34.9515 14.7573C32.1633 14.7573 29.9029 17.0611 29.9029 19.9029C29.9029 22.7447 32.1633 25.0485 34.9515 25.0485Z" fill="url(#paint4_radial_4046_67412)"/>
<path d="M56.2117 27.4498C60.4716 27.4498 63.3295 25.1681 63.3295 21.7593C63.3295 13.9522 53.2459 16.5363 53.2459 13.045C53.2459 11.753 54.3513 10.9558 56.1577 10.9558C58.1259 10.9558 59.501 12.1379 59.8784 14.0072L63.1677 12.6327C62.5746 9.71877 59.7436 7.76698 56.1577 7.76698C52.437 7.76698 49.6061 9.96618 49.6061 13.045C49.6061 20.0275 59.6088 17.6908 59.6088 21.8418C59.6088 23.2988 58.3147 24.2609 56.3465 24.2609C54.2435 24.2609 52.491 22.694 52.1944 20.3849L48.932 21.402C49.3904 24.8932 52.491 27.4498 56.2117 27.4498ZM74.4392 13.3749L71.069 22.2817L67.8067 13.3749H64.113L69.3974 26.68L67.2944 32.233H70.7455L77.9173 13.3749H74.4392ZM79.7862 27.2298H83.1834V21.1546C83.1834 18.0482 84.3966 16.2339 86.4727 16.2339C88.0634 16.2339 89.061 17.361 89.061 18.9829V27.2298H92.4581V18.1582C92.4581 15.1343 90.463 13.155 87.4972 13.155C85.583 13.155 84.0461 14.1172 83.1834 15.4642V13.3749H79.7862V27.2298ZM100.973 13.155C98.0876 13.155 95.6881 14.9144 95.2567 17.6634L98.2764 18.2131C98.4381 16.7287 99.4896 15.794 100.973 15.794C102.617 15.794 103.669 16.7562 103.669 18.3231V18.4606L101.134 18.708C97.0901 19.1478 95.068 20.6048 95.068 23.3263C95.068 25.6904 96.9283 27.4498 99.5975 27.4498C101.269 27.4498 102.914 26.5701 103.669 25.2231V27.2298H106.958V18.7904C106.958 15.1068 104.531 13.155 100.973 13.155ZM100.352 24.8932C99.1122 24.8932 98.3573 24.1785 98.3573 23.2163C98.3573 22.2267 99.274 21.457 101.08 21.237L103.669 20.9347V21.237C103.669 23.2713 102.455 24.8932 100.352 24.8932ZM110.276 32.233H113.673V25.8553C114.455 26.845 115.911 27.4498 117.475 27.4498C121.465 27.4498 124.026 24.5358 124.026 20.3024C124.026 16.0689 121.627 13.155 117.717 13.155C115.911 13.155 114.428 13.8972 113.673 14.9693V13.3749H110.276V32.233ZM117.07 24.4534C114.886 24.4534 113.457 22.804 113.457 20.3024C113.457 17.8008 114.886 16.1514 117.07 16.1514C119.227 16.1514 120.656 17.8008 120.656 20.3024C120.656 22.804 119.227 24.4534 117.07 24.4534ZM131.214 27.4498C134.342 27.4498 136.445 25.5255 136.445 23.1338C136.445 17.4709 128.976 19.4227 128.976 16.9761C128.976 16.1789 129.704 15.7116 130.783 15.7116C131.888 15.7116 133.074 16.3988 133.452 17.7183L136.202 16.5363C135.609 14.5295 133.371 13.155 130.729 13.155C127.763 13.155 125.903 14.8594 125.903 17.0311C125.903 22.2817 133.317 20.5773 133.317 23.1888C133.317 24.0685 132.481 24.7557 131.214 24.7557C129.515 24.7557 128.464 23.6012 128.06 22.1992L125.282 23.3538C125.957 25.388 127.925 27.4498 131.214 27.4498ZM151.65 19.8351C151.65 16.6187 149.413 13.155 144.829 13.155C140.327 13.155 138.116 16.7012 138.116 20.3024C138.116 23.9036 140.515 27.4498 145.018 27.4498C148.199 27.4498 150.572 25.9103 151.327 23.2988L148.145 22.4191C147.795 23.7661 146.663 24.5358 145.072 24.5358C143.131 24.5358 141.81 23.2988 141.513 21.2095H151.597C151.624 20.9346 151.65 20.3299 151.65 19.8351ZM141.594 18.6805C141.971 16.8112 143.158 15.794 144.829 15.794C146.797 15.794 147.849 17.0311 148.011 18.6805H141.594Z" fill="#FAFAFF"/>
<defs>
<radialGradient id="paint0_radial_4046_67412" cx="0" cy="0" r="1" gradientUnits="userSpaceOnUse" gradientTransform="translate(-46.1396 34.9003) scale(97.9235 106.576)">
<stop stop-color="#FF00FF"/>
<stop offset="1" stop-color="#AC8FFF"/>
</radialGradient>
<radialGradient id="paint1_radial_4046_67412" cx="0" cy="0" r="1" gradientUnits="userSpaceOnUse" gradientTransform="translate(3.26235 11.4352) scale(25.208 36.2084)">
<stop stop-color="#FF00FF"/>
<stop offset="1" stop-color="#AC8FFF"/>
</radialGradient>
<radialGradient id="paint2_radial_4046_67412" cx="0" cy="0" r="1" gradientUnits="userSpaceOnUse" gradientTransform="translate(-12.0775 24.8332) scale(25.208 36.2084)">
<stop stop-color="#FF00FF"/>
<stop offset="1" stop-color="#AC8FFF"/>
</radialGradient>
<radialGradient id="paint3_radial_4046_67412" cx="0" cy="0" r="1" gradientUnits="userSpaceOnUse" gradientTransform="translate(3.26235 38.4255) scale(25.208 36.2084)">
<stop stop-color="#FF00FF"/>
<stop offset="1" stop-color="#AC8FFF"/>
</radialGradient>
<radialGradient id="paint4_radial_4046_67412" cx="0" cy="0" r="1" gradientUnits="userSpaceOnUse" gradientTransform="translate(17.8255 24.8332) scale(25.208 36.2084)">
<stop stop-color="#FF00FF"/>
<stop offset="1" stop-color="#AC8FFF"/>
</radialGradient>
</defs>
</svg>
